<?xml version="1.0" encoding="UTF-8"?>
<!DOCTYPE svg PUBLIC "-//W3C//DTD SVG 1.1//EN" "http://www.w3.org/Graphics/SVG/1.1/DTD/svg11.dtd">
<svg version="1.1" xmlns="http://www.w3.org/2000/svg" xmlns:xlink="http://www.w3.org/1999/xlink" x="0" y="0" width="204" height="37" viewBox="0, 0, 204, 37">
  <g id="Layer_1">
    <g>
      <path d="M46.768,12.6 Q46.213,11.833 45.26,11.343 Q44.308,10.854 43.117,10.854 Q42.482,10.854 41.834,11.026 Q41.186,11.198 40.657,11.582 Q40.128,11.965 39.797,12.534 Q39.466,13.103 39.466,13.897 Q39.466,14.664 39.771,15.18 Q40.075,15.696 40.591,16.053 Q41.107,16.41 41.808,16.661 Q42.509,16.913 43.303,17.177 Q44.255,17.468 45.234,17.839 Q46.213,18.209 47.006,18.817 Q47.8,19.426 48.303,20.339 Q48.806,21.251 48.806,22.654 Q48.806,24.109 48.263,25.18 Q47.721,26.252 46.821,26.953 Q45.922,27.654 44.744,27.998 Q43.567,28.342 42.324,28.342 Q40.551,28.342 38.897,27.654 Q37.244,26.966 36.159,25.617 L38.196,23.897 Q38.858,24.876 39.969,25.485 Q41.08,26.093 42.377,26.093 Q43.038,26.093 43.699,25.908 Q44.361,25.723 44.903,25.326 Q45.446,24.929 45.789,24.334 Q46.133,23.738 46.133,22.892 Q46.133,22.045 45.776,21.476 Q45.419,20.908 44.811,20.511 Q44.202,20.114 43.395,19.836 Q42.588,19.558 41.689,19.267 Q40.789,19.003 39.916,18.619 Q39.043,18.235 38.355,17.64 Q37.667,17.045 37.244,16.172 Q36.821,15.299 36.821,14.002 Q36.821,12.6 37.389,11.595 Q37.958,10.589 38.871,9.928 Q39.784,9.267 40.935,8.962 Q42.086,8.658 43.25,8.658 Q44.89,8.658 46.319,9.24 Q47.747,9.822 48.62,10.801 z" fill="#606379"/>
      <path d="M59.653,28.342 Q57.801,28.342 56.425,27.72 Q55.049,27.098 54.15,26.067 Q53.25,25.035 52.814,23.699 Q52.377,22.363 52.377,20.934 L52.377,9.134 L54.996,9.134 L54.996,20.775 Q54.996,21.728 55.234,22.667 Q55.473,23.606 56.015,24.347 Q56.557,25.088 57.444,25.537 Q58.33,25.987 59.653,25.987 Q60.949,25.987 61.849,25.537 Q62.748,25.088 63.291,24.347 Q63.833,23.606 64.071,22.667 Q64.309,21.728 64.309,20.775 L64.309,9.134 L66.928,9.134 L66.928,20.934 Q66.928,22.363 66.492,23.699 Q66.055,25.035 65.156,26.067 Q64.256,27.098 62.88,27.72 Q61.505,28.342 59.653,28.342 z" fill="#606379"/>
      <path d="M71.347,9.134 L77.061,9.134 Q78.569,9.134 79.813,9.439 Q81.056,9.743 81.929,10.378 Q82.802,11.013 83.278,11.992 Q83.755,12.971 83.755,14.346 Q83.755,15.749 83.239,16.754 Q82.723,17.759 81.81,18.394 Q80.897,19.029 79.641,19.333 Q78.384,19.638 76.929,19.638 L73.966,19.638 L73.966,27.866 L71.347,27.866 z M73.966,17.415 L76.744,17.415 Q77.696,17.415 78.503,17.243 Q79.31,17.071 79.892,16.714 Q80.474,16.357 80.792,15.775 Q81.109,15.193 81.109,14.346 Q81.109,13.5 80.778,12.931 Q80.448,12.362 79.879,12.005 Q79.31,11.648 78.516,11.502 Q77.723,11.357 76.797,11.357 L73.966,11.357 z" fill="#606379"/>
      <path d="M89.707,25.537 L99.496,25.537 L99.496,27.866 L87.088,27.866 L87.088,9.134 L99.1,9.134 L99.1,11.436 L89.707,11.436 L89.707,17.045 L98.544,17.045 L98.544,19.294 L89.707,19.294 z" fill="#606379"/>
      <path d="M105.608,27.866 L102.989,27.866 L102.989,9.134 L108.994,9.134 Q110.344,9.134 111.561,9.412 Q112.778,9.69 113.69,10.298 Q114.603,10.907 115.132,11.899 Q115.661,12.891 115.661,14.32 Q115.661,16.383 114.391,17.653 Q113.122,18.923 111.111,19.267 L116.349,27.866 L113.174,27.866 L108.412,19.532 L105.608,19.532 z M105.608,17.336 L108.624,17.336 Q109.55,17.336 110.344,17.177 Q111.137,17.018 111.733,16.661 Q112.328,16.304 112.672,15.735 Q113.016,15.166 113.016,14.32 Q113.016,13.473 112.672,12.904 Q112.328,12.336 111.759,11.992 Q111.19,11.648 110.423,11.502 Q109.656,11.357 108.809,11.357 L105.608,11.357 z" fill="#606379"/>
      <path d="M120,27.866 L117.09,27.866 L125.212,9.134 L127.593,9.134 L135.636,27.866 L132.673,27.866 L130.768,23.262 L121.879,23.262 z M122.805,20.96 L129.816,20.96 L126.323,12.177 z" fill="#3588FF"/>
      <path d="M140.663,25.537 L149.023,25.537 L149.023,27.866 L138.044,27.866 L138.044,9.134 L140.663,9.134 z" fill="#3588FF"/>
      <path d="M151.563,9.134 L157.992,9.134 Q159.791,9.134 161.59,9.663 Q163.389,10.193 164.844,11.33 Q166.299,12.468 167.199,14.24 Q168.098,16.013 168.098,18.5 Q168.098,20.908 167.199,22.667 Q166.299,24.426 164.844,25.577 Q163.389,26.728 161.59,27.297 Q159.791,27.866 157.992,27.866 L151.563,27.866 z M154.182,25.564 L157.463,25.564 Q159.156,25.564 160.598,25.088 Q162.04,24.611 163.085,23.712 Q164.13,22.812 164.712,21.49 Q165.294,20.167 165.294,18.5 Q165.294,16.754 164.712,15.431 Q164.13,14.108 163.085,13.222 Q162.04,12.336 160.598,11.873 Q159.156,11.41 157.463,11.41 L154.182,11.41 z" fill="#3588FF"/>
      <path d="M174.316,25.537 L184.105,25.537 L184.105,27.866 L171.696,27.866 L171.696,9.134 L183.708,9.134 L183.708,11.436 L174.316,11.436 L174.316,17.045 L183.152,17.045 L183.152,19.294 L174.316,19.294 z" fill="#3588FF"/>
      <path d="M188.364,27.866 L185.454,27.866 L193.576,9.134 L195.957,9.134 L204,27.866 L201.037,27.866 L199.132,23.262 L190.243,23.262 z M191.169,20.96 L198.18,20.96 L194.687,12.177 z" fill="#3588FF"/>
    </g>
    <g id="network-tiers-svgrepo-com">
      <path d="M7.572,23.786 C6.371,22.286 5.716,20.422 5.715,18.5 L0,18.5 C-0.004,21.939 1.245,25.261 3.515,27.844 z" fill="#669DF6"/>
      <path d="M14.288,4.212 C10.849,4.215 7.526,5.458 4.929,7.713 L8.987,11.771 C11.566,9.742 15.077,9.363 18.029,10.795 C20.981,12.227 22.857,15.219 22.86,18.5 L28.575,18.5 C28.575,10.609 22.178,4.212 14.288,4.212 z" fill="#669DF6"/>
      <path d="M11.43,28.501 C11.43,30.079 10.151,31.359 8.573,31.359 C6.994,31.359 5.715,30.079 5.715,28.501 C5.715,26.923 6.994,25.644 8.573,25.644 C10.151,25.644 11.43,26.923 11.43,28.501 z" fill="#AECBFA" id="Oval-2"/>
      <path d="M27.146,24.215 C27.146,25.793 25.867,27.073 24.289,27.073 C22.711,27.073 21.431,25.793 21.431,24.215 C21.431,22.637 22.711,21.358 24.289,21.358 C25.867,21.358 27.146,22.637 27.146,24.215 z" fill="#4285F4" id="Oval-2-2"/>
      <path d="M20.003,29.93 C20.003,31.508 18.723,32.788 17.145,32.788 C15.567,32.788 14.288,31.508 14.288,29.93 C14.288,28.352 15.567,27.073 17.145,27.073 C18.723,27.073 20.003,28.352 20.003,29.93 z" fill="#669DF6" id="Oval-2-3"/>
      <path d="M5.715,18.5 L0,18.5 C0.003,19.909 0.215,21.31 0.629,22.658 L6.344,21.529 C5.952,20.566 5.739,19.539 5.715,18.5 z" fill="#4285F4"/>
      <path d="M7.144,12.785 C7.144,14.363 5.864,15.642 4.286,15.642 C2.708,15.642 1.429,14.363 1.429,12.785 C1.429,11.207 2.708,9.927 4.286,9.927 C5.864,9.927 7.144,11.207 7.144,12.785 z" fill="#AECBFA" id="Oval-2-4"/>
      <path d="M22.303,15.471 C22.67,16.439 22.859,17.465 22.86,18.5 L28.575,18.5 C28.577,17.091 28.369,15.69 27.961,14.342 z" fill="#4285F4"/>
    </g>
  </g>
</svg>
